<svg width="20" height="19" viewBox="0 0 20 19" fill="none" xmlns="http://www.w3.org/2000/svg">
<path d="M14.5 0.791626C12.7083 0.794255 11.0299 1.62442 10 3.01711C8.97005 1.62442 7.29167 0.794255 5.5 0.791626C2.56999 0.791626 0 3.3814 0 6.33329C0 9.2102 1.70996 12.1732 4.94531 14.9023C6.44434 16.1643 8.08871 17.2614 9.84701 18.1729C9.94303 18.2199 10.057 18.2199 10.153 18.1729C11.9106 17.2614 13.5545 16.1642 15.0531 14.9023C18.29 12.1732 20 9.2102 20 6.33329C20 3.3814 17.43 0.791626 14.5 0.791626V0.791626ZM10 17.5315C8.77572 16.8897 0.666667 12.4056 0.666667 6.33329C0.666667 3.71863 2.92497 1.42496 5.5 1.42496C7.24447 1.4279 8.85254 2.32192 9.70964 3.76548C9.77376 3.85856 9.88298 3.91453 10 3.91453C10.117 3.91453 10.2262 3.85856 10.2904 3.76548C11.1475 2.32192 12.7555 1.4279 14.5 1.42496C17.075 1.42496 19.3333 3.71863 19.3333 6.33329C19.3333 12.4056 11.2243 16.8897 10 17.5315Z" fill="white"/>
</svg>
