<svg width="20" height="20" viewBox="0 0 20 20" fill="none" xmlns="http://www.w3.org/2000/svg">
<path d="M19.813 18.7639L14.6321 13.5827C15.7874 12.1643 16.4828 10.357 16.4828 8.38906C16.4828 3.84449 12.7862 0.147461 8.2416 0.147461C3.69703 0.147461 0 3.84406 0 8.38906C0 12.9332 3.69703 16.6302 8.2416 16.6302C10.3592 16.6302 12.2872 15.8201 13.7489 14.5025L18.9115 19.6655C19.036 19.79 19.1996 19.8521 19.3624 19.8521C19.5261 19.8521 19.6889 19.79 19.8134 19.6655C20.0621 19.4168 20.0621 19.0126 19.813 18.7639ZM0.849662 8.38863C0.849662 4.31289 4.16543 0.997123 8.24117 0.997123C12.3165 0.997123 15.6323 4.31289 15.6323 8.38863C15.6323 10.3434 14.8633 12.1184 13.6201 13.442C13.6141 13.4471 13.6078 13.4488 13.6018 13.4539C13.5933 13.4628 13.5908 13.4743 13.5827 13.4828C12.2357 14.8943 10.3417 15.7793 8.2416 15.7793C4.16543 15.7797 0.849662 12.4639 0.849662 8.38863Z" fill="#010002"/>
</svg>
