<svg width="16" height="19" viewBox="0 0 16 19" fill="none" xmlns="http://www.w3.org/2000/svg">
<g clip-path="url(#clip0)">
<path d="M15.6667 3.95837H0.333344C0.149344 3.95837 0 4.13568 0 4.35418V16.2292C0 17.7571 1.04666 19 2.33334 19H13.6667C14.9533 19 16 17.7571 16 16.2292V4.35418C16 4.13568 15.8507 3.95837 15.6667 3.95837ZM15.3333 16.2292C15.3333 17.3209 14.586 18.2083 13.6667 18.2083H2.33334C1.414 18.2083 0.666687 17.3209 0.666687 16.2292V4.75003H15.3333V16.2292Z" fill="white"/>
<path d="M7.99997 0C6.16197 0 4.66663 1.77572 4.66663 3.95835V6.72919C4.66663 6.94769 4.81597 7.12504 4.99997 7.12504C5.18397 7.12504 5.33331 6.94769 5.33331 6.72919V3.95835C5.33331 2.21194 6.52931 0.791692 7.99997 0.791692C9.47063 0.791692 10.6666 2.21194 10.6666 3.95835V6.72919C10.6666 6.94769 10.816 7.12504 11 7.12504C11.184 7.12504 11.3333 6.94769 11.3333 6.72919V3.95835C11.3333 1.77572 9.83797 0 7.99997 0Z" fill="white"/>
<path d="M5 6.33337C4.44866 6.33337 4 6.86615 4 7.52087C4 8.17559 4.44866 8.70837 5 8.70837C5.55134 8.70837 6 8.17559 6 7.52087C6 6.86615 5.55134 6.33337 5 6.33337ZM5 7.91668C4.81666 7.91668 4.66666 7.73856 4.66666 7.52084C4.66666 7.30312 4.81666 7.12499 5 7.12499C5.18334 7.12499 5.33334 7.30312 5.33334 7.52084C5.33334 7.73856 5.18334 7.91668 5 7.91668Z" fill="white"/>
<path d="M11 6.33337C10.4487 6.33337 10 6.86615 10 7.52087C10 8.17559 10.4487 8.70837 11 8.70837C11.5513 8.70837 12 8.17559 12 7.52087C12 6.86615 11.5513 6.33337 11 6.33337ZM11 7.91668C10.8167 7.91668 10.6667 7.73856 10.6667 7.52084C10.6667 7.30312 10.8167 7.12499 11 7.12499C11.1833 7.12499 11.3333 7.30312 11.3333 7.52084C11.3333 7.73856 11.1833 7.91668 11 7.91668Z" fill="white"/>
</g>
<defs>
<clipPath id="clip0">
<rect width="16" height="19" fill="white"/>
</clipPath>
</defs>
</svg>
